<?xml version="1.0" encoding="utf-8"?>
<!-- Generator: Adobe Illustrator 16.0.1, SVG Export Plug-In . SVG Version: 6.00 Build 0)  -->
<!DOCTYPE svg PUBLIC "-//W3C//DTD SVG 1.1//EN" "http://www.w3.org/Graphics/SVG/1.1/DTD/svg11.dtd">
<svg version="1.1" id="Layer_1" xmlns="http://www.w3.org/2000/svg" xmlns:xlink="http://www.w3.org/1999/xlink" x="0px" y="0px"
	 width="501px" height="280px" viewBox="0 0 501 280" enable-background="new 0 0 501 280" xml:space="preserve">
<path fill-rule="evenodd" clip-rule="evenodd" fill="#FFFFFF" d="M378.698,42.495c0.853,0,1.58,0.02,2.306-0.002
	c22.158-0.677,44.281-1.91,66.175-5.577c8.102-1.357,16.088-3.407,24.12-5.172c2.14-0.47,3.357,0.678,4.108,2.376
	c0.857,1.942,0.052,4.021-2.048,4.676c-3.885,1.212-7.822,2.34-11.814,3.106c-22.124,4.245-44.438,6.757-66.979,7.188
	c-5.563,0.106-11.121,0.547-16.176,0.809c-2.795,10.695-5.043,21.115-8.273,31.221c-4.656,14.569-10.168,28.863-15.007,43.377
	c-1.48,4.443-2.482,9.19-2.777,13.856c-0.737,11.705-1.318,23.445-1.257,35.168c0.058,10.888,3.028,21.378,6.108,31.773
	c0.565,1.91,1.057,3.853,1.399,5.812c0.127,0.725-0.088,2.071-0.468,2.202c-0.736,0.254-1.969,0.147-2.519-0.345
	c-1.466-1.311-2.94-2.748-3.946-4.415c-4.012-6.643-5.989-14.05-7.578-21.557c-2.46-11.631-3.183-23.389-2.203-35.738
	c-1.912,2.638-3.484,4.959-5.212,7.158c-4.31,5.486-9.133,10.401-15.711,13.183c-6.408,2.708-10.978,1.919-15.465-3.357
	c-2.823-3.319-4.954-7.228-7.422-10.914c-2.138,2.662-4.427,5.67-6.88,8.536c-4.732,5.527-9.834,10.726-16.187,14.368
	c-2.978,1.707-6.306,3.107-9.651,3.802c-5.599,1.161-9.533-1.389-11.418-6.837c-2.012-5.813-2.018-11.764-0.737-17.742
	c0.146-0.68,0.255-1.367,0.502-2.698c-3.307,3.518-6.097,6.582-8.991,9.546c-11.43,11.71-23.497,22.706-37.135,31.813
	c-4.198,2.803-8.663,5.377-13.323,7.281c-9.968,4.075-18.345-1.126-19.115-11.879c-0.353-4.932,0.386-9.941,0.646-14.915
	c0.033-0.641,0.161-1.275,0.302-2.343c-3.29,1.025-6.294,1.869-9.232,2.9c-4.472,1.571-8.878,3.333-13.356,4.888
	c-1.73,0.601-2.614,1.652-3.281,3.341c-10.505,26.577-27.049,48.626-49.895,65.831c-8.105,6.104-16.922,11.036-27.021,12.933
	c-4.123,0.774-8.466,1.012-12.649,0.695c-7.673-0.581-10.521-5.092-8.949-13.158c1.393-7.15,5.058-13.161,9.501-18.744
	c8.492-10.669,18.978-19.14,30.082-26.89c15.14-10.567,31.344-19.228,48.242-26.606c1.623-0.708,2.614-1.641,2.854-3.361
	c0.76-5.429,1.879-10.837,2.189-16.291c0.541-9.518-3.729-14.139-13.217-15.295c-11.208-1.366-22.18,0.248-32.855,3.302
	c-14.145,4.047-28.104,8.75-42.103,13.295c-0.782,0.254-1.669,1.612-1.712,2.495c-0.648,13.223-1.181,26.451-1.694,39.68
	c-0.131,3.366,0.605,6.868-2.159,9.686c-0.388,0.396-0.19,1.433-0.154,2.167c0.21,4.244,0.573,8.484,0.634,12.729
	c0.031,2.129-0.292,4.307-0.778,6.387c-0.411,1.762-1.849,3.094-3.655,2.683c-1.085-0.247-2.525-1.605-2.716-2.661
	c-1.062-5.877-2.351-11.798-2.525-17.733c-0.481-16.404-0.45-32.824-0.62-49.237c-0.01-0.98-0.001-1.962-0.001-2.849
	c-2.683-0.486-5.176-0.721-7.534-1.414c-3.824-1.125-4.805-3.746-2.244-6.787c2.442-2.9,5.56-5.222,8.246-7.933
	c0.762-0.769,1.463-1.998,1.485-3.03c0.09-4.245-0.106-8.496-0.169-12.745c-0.087-5.853,1.581-11.172,5.026-15.898
	c1.536-2.107,3.433-3.7,6.316-3.15c2.836,0.541,4.869,2.413,5.284,5.045c0.561,3.555,0.402,7.238,0.39,10.866
	c-0.007,2.062-0.337,4.123-0.521,6.188c0.328,0.029,0.53,0.114,0.626,0.047c10.416-7.211,20.753-14.536,29.727-23.551
	c2.037-2.046,3.896-4.367,5.391-6.833c2.411-3.977,1.013-6.351-3.615-6.033c-4.471,0.307-8.991,0.81-13.338,1.854
	c-10.991,2.639-21.951,5.442-32.816,8.554c-6.369,1.824-12.116,4.966-16.719,10.018c-2.789,3.061-6.133,3.041-8.819,0.459
	c-2.167-2.083-2.409-4.326-0.107-6.238c2.537-2.109,5.324-4.029,8.261-5.525c12.294-6.267,25.399-10.355,38.709-13.797
	c11.052-2.858,22.199-5.289,33.68-5.54c6.969-0.153,10.239,4.18,8.269,10.898c-1.686,5.749-5.369,10.307-9.254,14.667
	c-10.671,11.976-23.413,21.486-36.594,30.458c-0.826,0.562-1.671,1.095-2.506,1.645c-2.384,1.571-2.384,1.571-2.045,4.78
	c6.627-2.233,13.202-4.531,19.83-6.664c13.477-4.339,27.074-8.211,41.177-9.976c7.232-0.905,14.461-0.977,21.662,0.27
	c12.172,2.108,17.902,9.095,17.362,21.589c-0.235,5.458-1.056,10.891-1.624,16.467c0.595-0.179,1.425-0.41,2.243-0.677
	c6.562-2.14,13.102-4.352,19.697-6.383c1.605-0.494,2.451-1.255,3.024-2.828c4.821-13.223,11.698-25.211,21.79-35.153
	c5.1-5.024,10.822-9.174,18.043-10.614c10.652-2.125,16.49,3.723,14.471,14.394c-1.627,8.604-6.609,15.167-12.88,20.874
	c-9.214,8.385-20.097,13.86-31.845,17.688c-1.754,0.571-2.579,1.399-2.89,3.158c-0.916,5.183-1.801,10.357-0.723,15.619
	c1.008,4.921,4.134,6.888,8.783,4.922c4.187-1.771,8.285-3.938,12.05-6.481c18.508-12.505,34.127-28.165,48.706-44.966
	c4.083-4.707,7.171-9.938,10.062-15.399c4.228-7.988,9.396-15.338,16.219-21.392c7.021-6.229,15.01-9.823,24.609-8.874
	c1.391,0.138,2.796,0.453,4.112,0.918c1.858,0.657,2.636,2.127,2.617,4.1c-0.019,1.964-0.777,3.368-2.671,4.066
	c-0.312,0.115-0.609,0.281-0.931,0.358c-14.373,3.454-24.695,12.738-34.445,23.204c-7.94,8.522-11.614,18.692-13.354,29.768
	c-0.459,2.919,0.061,6.165,0.852,9.063c0.924,3.386,3.835,4.827,7.089,3.493c3.019-1.238,6.001-2.952,8.469-5.074
	c7.021-6.037,12.301-13.538,16.753-21.606c0.534-0.967,0.401-2.364,0.392-3.56c-0.047-5.298-0.675-10.652-0.11-15.879
	c0.59-5.457,4.642-9.119,8.891-9.445c4.263-0.326,6.612,1.657,7.005,5.915c0.423,4.583-0.581,8.951-2.119,13.208
	c-0.818,2.265-1.583,4.627-2.871,6.623c-1.649,2.557-1.579,4.97-0.394,7.496c1.48,3.15,2.796,6.437,4.719,9.305
	c2.723,4.062,5.777,5.049,10.158,2.894c3.512-1.728,6.966-4.039,9.681-6.834c6.997-7.203,12.672-15.64,14.395-25.551
	c4.606-26.505,10.046-52.795,17.254-78.715c0.062-0.225,0.008-0.482,0.008-1.089c-4.909,0.699-9.757,1.304-14.575,2.088
	c-49.498,8.051-97.683,21.166-144.988,37.665c-0.772,0.27-1.613,0.503-2.417,0.489c-2.124-0.037-3.796-0.914-4.107-3.204
	c-0.286-2.105,0.767-3.424,2.824-4.077c16.883-5.358,33.676-11.019,50.652-16.066c25.612-7.614,51.571-13.915,77.863-18.718
	c11.457-2.093,23.008-3.677,34.534-5.373c1.954-0.287,2.952-0.911,3.591-2.921c1.688-5.305,3.673-10.52,5.65-15.728
	c0.646-1.699,1.492-3.366,2.522-4.857c0.649-0.939,1.811-1.524,2.741-2.268c0.81,1.06,2.244,2.075,2.323,3.187
	c0.447,6.293,0.573,12.609,0.796,18.917C378.82,41.288,378.746,41.771,378.698,42.495z M137.886,191.906
	c-0.291-0.204-0.582-0.407-0.873-0.611c-22.901,11.357-44.812,24.226-62.694,42.888c-3.627,3.785-6.377,8.475-9.161,12.977
	c-1.265,2.045-2.26,4.837-0.542,7.07c1.767,2.299,4.779,2.209,7.192,1.477c4.815-1.461,9.815-2.856,14.124-5.345
	c17.286-9.986,30.593-24.234,41.577-40.695C131.308,203.973,134.446,197.839,137.886,191.906z M189.701,163.315
	c0.241,0.162,0.482,0.324,0.723,0.487c9.991-3.782,19.156-8.874,26.435-16.91c3.051-3.369,5.544-7.095,6.507-11.628
	c0.892-4.197-1.539-6.637-5.636-5.395c-2.336,0.708-4.652,1.873-6.626,3.312c-5.881,4.285-10.224,10.018-13.928,16.179
	C194.458,153.878,192.176,158.654,189.701,163.315z"/>
<path fill-rule="evenodd" clip-rule="evenodd" fill="#FFFFFF" d="M474.74,102.382c-5.198,16.623-13.2,31.115-28.424,40.382
	c-3.162,1.925-7.042,2.855-10.716,3.708c-3.578,0.829-6.902-0.625-9.195-3.363c-2.747-3.281-5.027-6.954-7.398-10.299
	c-3.288,3.536-6.66,7.818-10.702,11.332c-4.489,3.903-9.26,7.73-14.489,10.485c-11.953,6.296-20.468,1.08-21.271-12.462
	c-0.536-9.045,1.101-17.764,4.229-26.188c5.533-14.903,13.624-28.145,25.963-38.462c4.586-3.834,9.673-6.77,15.684-7.812
	c10.168-1.762,18.02,6.283,15.72,16.127c-0.479,2.048-1.247,3.908-3.706,4.073c-1.86,0.124-3.838-1.862-4.38-4.18
	c-0.057-0.242-0.068-0.495-0.107-0.742c-0.854-5.298-3.521-7.207-8.544-5.311c-3.199,1.207-6.44,2.981-8.924,5.293
	c-14.004,13.037-23.106,28.911-26.156,47.92c-0.523,3.257-0.043,6.833,0.703,10.093c0.847,3.703,3.598,4.972,7.307,4.065
	c4.533-1.108,8.266-3.797,11.256-7.117c4.884-5.423,9.317-11.255,13.814-17.015c0.608-0.78,0.655-2.134,0.664-3.224
	c0.041-5.384-0.527-10.829,0.116-16.132c0.536-4.422,3.137-8.122,8.066-9.099c4.598-0.911,7.44,1.355,7.798,6.013
	c0.412,5.386-1.123,10.374-3.155,15.251c-0.511,1.227-1.118,2.415-1.691,3.615c-1.007,2.107-2.571,3.895-1.472,6.69
	c1.68,4.271,2.834,8.775,6.923,11.529c2.396,1.614,5.013,0.885,7.496,0.237c4.926-1.287,8.76-4.336,12.119-8.015
	c6.651-7.287,11.143-15.921,15.277-24.764C469.649,100.508,469.61,100.489,474.74,102.382z"/>
</svg>
