<?xml version="1.0" encoding="utf-8"?>
<!-- Generator: Adobe Illustrator 16.0.1, SVG Export Plug-In . SVG Version: 6.00 Build 0)  -->
<!DOCTYPE svg PUBLIC "-//W3C//DTD SVG 1.1//EN" "http://www.w3.org/Graphics/SVG/1.1/DTD/svg11.dtd">
<svg version="1.1" id="Layer_1" xmlns="http://www.w3.org/2000/svg" xmlns:xlink="http://www.w3.org/1999/xlink" x="0px" y="0px"
	 width="15.676px" height="16.191px" viewBox="0 0 15.676 16.191" enable-background="new 0 0 15.676 16.191" xml:space="preserve">
<path fill="#FFFFFF" d="M11.844,10.416c-0.545,0-1.037,0.225-1.391,0.586l-4.51-2.46c0.031-0.139,0.051-0.281,0.051-0.43
	s-0.02-0.291-0.051-0.43l4.51-2.46c0.354,0.36,0.846,0.585,1.391,0.585c1.077,0,1.95-0.873,1.95-1.95c0-1.077-0.873-1.95-1.95-1.95
	c-1.076,0-1.95,0.873-1.95,1.95c0,0.148,0.02,0.291,0.051,0.43L5.436,6.748C5.082,6.387,4.59,6.162,4.045,6.162
	c-1.077,0-1.95,0.873-1.95,1.95c0,1.077,0.873,1.949,1.95,1.949c0.545,0,1.037-0.225,1.391-0.585l4.51,2.459
	c-0.032,0.139-0.052,0.282-0.052,0.431c0,1.077,0.874,1.95,1.95,1.95c1.077,0,1.95-0.873,1.95-1.95S12.921,10.416,11.844,10.416z"/>
</svg>
