<?xml version="1.0" encoding="utf-8"?>
<!-- Generator: Adobe Illustrator 16.0.1, SVG Export Plug-In . SVG Version: 6.00 Build 0)  -->
<!DOCTYPE svg PUBLIC "-//W3C//DTD SVG 1.1//EN" "http://www.w3.org/Graphics/SVG/1.1/DTD/svg11.dtd">
<svg version="1.1" id="Layer_1" xmlns="http://www.w3.org/2000/svg" xmlns:xlink="http://www.w3.org/1999/xlink" x="0px" y="0px"
	 width="50px" height="50px" viewBox="0 0 50 50" enable-background="new 0 0 50 50" xml:space="preserve">
<path fill="#333333" d="M25,1.27C11.895,1.27,1.27,11.895,1.27,25c0,13.105,10.625,23.73,23.73,23.73
	c13.105,0,23.73-10.625,23.73-23.73C48.73,11.895,38.105,1.27,25,1.27z M35.842,35.436c-0.373,0.627-1.166,0.881-1.842,0.582
	c-0.137-0.062-0.264-0.143-0.393-0.219c-2.512-1.488-5.221-2.41-8.103-2.852c-1.767-0.271-3.545-0.364-5.33-0.295
	c-2.309,0.092-4.589,0.41-6.844,0.91c-0.228,0.051-0.462,0.097-0.694,0.1c-0.699,0.008-1.288-0.488-1.411-1.16
	c-0.13-0.711,0.223-1.377,0.875-1.641c0.137-0.055,0.285-0.09,0.43-0.122c1.845-0.414,3.708-0.729,5.592-0.888
	c1.052-0.09,2.108-0.123,3.163-0.183c3.12,0.032,6.172,0.454,9.134,1.453c1.635,0.551,3.193,1.264,4.676,2.146
	c0.129,0.076,0.26,0.152,0.379,0.242C36.07,33.965,36.229,34.787,35.842,35.436z M38.745,28.979
	c-0.524,0.861-1.614,1.131-2.521,0.619c-0.512-0.289-1.018-0.59-1.539-0.854c-2.396-1.222-4.936-2.015-7.569-2.513
	c-2.029-0.383-4.078-0.571-6.254-0.58c-2.71,0.011-5.486,0.348-8.198,1.151c-0.442,0.132-0.886,0.14-1.319-0.034
	c-0.705-0.287-1.163-0.992-1.138-1.74c0.026-0.78,0.501-1.458,1.253-1.688c0.765-0.233,1.541-0.436,2.321-0.609
	c1.921-0.427,3.869-0.653,5.836-0.727c4.233-0.161,8.367,0.387,12.402,1.68c2.039,0.654,3.992,1.51,5.834,2.605
	c0.092,0.055,0.184,0.111,0.274,0.166C39.089,27.043,39.203,28.227,38.745,28.979z M39.025,22.266
	c-1.023-0.579-2.071-1.104-3.162-1.542c-2.168-0.869-4.414-1.454-6.711-1.859c-1.598-0.282-3.209-0.469-4.828-0.566
	c-1.684-0.101-3.368-0.113-5.054-0.026c-1.932,0.1-3.849,0.312-5.74,0.721c-0.698,0.151-1.387,0.341-2.078,0.525
	c-0.423,0.113-0.84,0.127-1.262,0.004c-0.922-0.27-1.559-1.097-1.586-2.065c-0.026-0.94,0.554-1.815,1.466-2.116
	c0.667-0.22,1.352-0.393,2.038-0.551c1.696-0.392,3.417-0.635,5.151-0.793c1.841-0.167,3.686-0.222,5.531-0.169
	c4.547,0.13,9.006,0.795,13.321,2.285c1.761,0.607,3.453,1.361,5.062,2.3c0.573,0.334,0.959,0.807,1.105,1.459
	c0.035,0.155,0.043,0.316,0.063,0.474C42.336,22.067,40.535,23.12,39.025,22.266z"/>
</svg>
