<?xml version="1.0" encoding="utf-8"?>
<!-- Generator: Adobe Illustrator 16.0.1, SVG Export Plug-In . SVG Version: 6.00 Build 0)  -->
<!DOCTYPE svg PUBLIC "-//W3C//DTD SVG 1.1//EN" "http://www.w3.org/Graphics/SVG/1.1/DTD/svg11.dtd">
<svg version="1.1" id="Layer_1" xmlns="http://www.w3.org/2000/svg" xmlns:xlink="http://www.w3.org/1999/xlink" x="0px" y="0px"
	 width="50px" height="50px" viewBox="0 0 50 50" enable-background="new 0 0 50 50" xml:space="preserve">
<path fill-rule="evenodd" clip-rule="evenodd" fill="#FFFFFF" d="M25,1.27C11.895,1.27,1.27,11.895,1.27,25
	c0,13.105,10.625,23.73,23.73,23.73c13.105,0,23.73-10.625,23.73-23.73C48.73,11.895,38.105,1.27,25,1.27z M35.842,35.435
	c-0.373,0.628-1.166,0.881-1.842,0.582c-0.136-0.061-0.264-0.142-0.392-0.218c-2.512-1.488-5.222-2.41-8.103-2.852
	c-1.767-0.271-3.545-0.364-5.33-0.294c-2.309,0.091-4.589,0.41-6.844,0.91c-0.228,0.05-0.462,0.096-0.694,0.099
	c-0.699,0.008-1.288-0.488-1.411-1.16c-0.13-0.711,0.223-1.377,0.875-1.64c0.137-0.056,0.285-0.091,0.43-0.123
	c1.845-0.414,3.708-0.728,5.592-0.887c1.052-0.09,2.108-0.124,3.163-0.183c3.12,0.032,6.172,0.454,9.134,1.453
	c1.635,0.551,3.194,1.264,4.676,2.146c0.129,0.076,0.259,0.152,0.378,0.242C36.071,33.965,36.228,34.787,35.842,35.435z
	 M38.745,28.979c-0.524,0.861-1.614,1.13-2.52,0.618c-0.512-0.288-1.018-0.589-1.54-0.854c-2.396-1.222-4.935-2.014-7.569-2.512
	c-2.029-0.384-4.078-0.572-6.254-0.581c-2.71,0.011-5.486,0.348-8.198,1.152c-0.442,0.132-0.886,0.14-1.319-0.035
	c-0.705-0.286-1.163-0.992-1.138-1.739c0.026-0.78,0.501-1.458,1.253-1.688c0.765-0.233,1.541-0.436,2.321-0.609
	c1.921-0.427,3.869-0.653,5.836-0.727c4.233-0.161,8.368,0.387,12.403,1.68c2.039,0.654,3.991,1.51,5.834,2.605
	c0.092,0.055,0.183,0.111,0.274,0.166C39.089,27.043,39.203,28.226,38.745,28.979z M39.025,22.266
	c-1.023-0.579-2.071-1.104-3.162-1.542c-2.167-0.869-4.414-1.454-6.71-1.859c-1.599-0.282-3.209-0.469-4.829-0.566
	c-1.684-0.101-3.368-0.113-5.054-0.026c-1.932,0.1-3.849,0.312-5.74,0.721c-0.698,0.151-1.387,0.341-2.078,0.525
	c-0.423,0.113-0.84,0.127-1.262,0.004c-0.922-0.27-1.559-1.097-1.586-2.065c-0.026-0.94,0.554-1.815,1.466-2.116
	c0.667-0.22,1.352-0.393,2.038-0.551c1.696-0.392,3.417-0.635,5.151-0.793c1.841-0.167,3.686-0.222,5.531-0.169
	c4.547,0.13,9.006,0.795,13.322,2.285c1.76,0.607,3.453,1.361,5.062,2.3c0.573,0.334,0.959,0.807,1.105,1.459
	c0.035,0.155,0.044,0.316,0.064,0.474C42.336,22.067,40.535,23.12,39.025,22.266z"/>
</svg>
