<?xml version="1.0" encoding="utf-8"?>
<!-- Generator: Adobe Illustrator 16.0.1, SVG Export Plug-In . SVG Version: 6.00 Build 0)  -->
<!DOCTYPE svg PUBLIC "-//W3C//DTD SVG 1.1//EN" "http://www.w3.org/Graphics/SVG/1.1/DTD/svg11.dtd">
<svg version="1.1" id="Layer_1" xmlns="http://www.w3.org/2000/svg" xmlns:xlink="http://www.w3.org/1999/xlink" x="0px" y="0px"
	 width="96.688px" height="16.191px" viewBox="0 0 96.688 16.191" enable-background="new 0 0 96.688 16.191" xml:space="preserve">
<polygon opacity="0.4" fill="#333333" enable-background="new    " points="88.344,0.32 90.922,5.545 96.688,6.383 92.516,10.449 
	93.5,16.191 88.344,13.48 83.187,16.191 84.172,10.449 80,6.383 85.765,5.545 "/>
<polygon fill="#333333" points="8.344,0.32 10.922,5.545 16.688,6.383 12.516,10.449 13.5,16.191 8.344,13.48 3.187,16.191 
	4.172,10.449 0,6.383 5.765,5.545 "/>
<polygon fill="#333333" points="28.344,0.32 30.922,5.545 36.688,6.383 32.516,10.449 33.5,16.191 28.344,13.48 23.187,16.191 
	24.172,10.449 20,6.383 25.765,5.545 "/>
<polygon fill="#333333" points="48.344,0.32 50.922,5.545 56.688,6.383 52.516,10.449 53.5,16.191 48.344,13.48 43.187,16.191 
	44.172,10.449 40,6.383 45.765,5.545 "/>
<polygon fill="#333333" points="68.344,0.32 70.922,5.545 76.688,6.383 72.516,10.449 73.5,16.191 68.344,13.48 63.187,16.191 
	64.172,10.449 60,6.383 65.765,5.545 "/>
<polygon fill="#333333" points="88.344,13.48 88.344,0.32 85.765,5.545 80,6.383 84.172,10.449 83.187,16.191 "/>
</svg>
